<svg width="52" height="63" viewBox="0 0 52 63" fill="none" xmlns="http://www.w3.org/2000/svg">
<path d="M5.0188 39.5339C12.4183 37.4306 19.9486 42.4284 20.8846 50.0638L21.8802 58.1858C21.9321 58.6093 21.4019 58.8415 21.1259 58.5162L5.0188 39.5339Z" fill="#FE5387"/>
<path d="M5.96375 20.4151C5.66966 17.8987 6.98634 15.4685 9.25485 14.3406C13.0996 12.4289 17.65 15.0526 17.9219 19.3377L20.2337 55.7792L7.78519 35.9999L5.96375 20.4151Z" fill="#FE5387"/>
<path d="M0.710449 25.3423C0.710449 11.3461 12.0566 0 26.0527 0C40.0489 0 51.395 11.3461 51.395 25.3423C51.395 39.3384 40.0489 50.6845 26.0527 50.6845C12.0566 50.6845 0.710449 39.3384 0.710449 25.3423Z" fill="#FE5387"/>
<path d="M5.20508 25.3422C5.20508 13.5855 14.7358 4.05475 26.4926 4.05475C38.2493 4.05475 47.7801 13.5855 47.7801 25.3422C47.7801 37.099 38.2493 46.6297 26.4926 46.6297C14.7358 46.6297 5.20508 37.099 5.20508 25.3422Z" fill="#FE5387"/>
<path fill-rule="evenodd" clip-rule="evenodd" d="M36.4028 20.4258C38.2784 23.3797 37.4041 27.2948 34.4502 29.1703L26.0886 34.4792L18.2918 29.0077C15.4276 26.9978 14.7351 23.0466 16.7451 20.1824C18.755 17.3183 22.7062 16.6258 25.5704 18.6357L26.4406 19.2464L27.6584 18.4732C30.6123 16.5976 34.5273 17.4719 36.4028 20.4258Z" fill="white"/>
</svg>
