<svg width="24" height="25" viewBox="0 0 24 25" fill="none" xmlns="http://www.w3.org/2000/svg">
<g clip-path="url(#clip0_46_284)">
<path d="M24 12.9036C24 6.27614 18.6274 0.903564 12 0.903564C5.37258 0.903564 0 6.27614 0 12.9036C0 18.893 4.3882 23.8575 10.125 24.7578V16.3723H7.07812V12.9036H10.125V10.2598C10.125 7.25232 11.9166 5.59106 14.6576 5.59106C15.9701 5.59106 17.3438 5.82544 17.3438 5.82544V8.77856H15.8306C14.34 8.77856 13.875 9.70364 13.875 10.6536V12.9036H17.2031L16.6711 16.3723H13.875V24.7578C19.6118 23.8575 24 18.893 24 12.9036Z" fill="#9CA3AF"/>
</g>
<defs>
<clipPath id="clip0_46_284">
<rect width="24" height="24" fill="white" transform="translate(0 0.903564)"/>
</clipPath>
</defs>
</svg>
