<svg width="24" height="25" viewBox="0 0 24 25" fill="none" xmlns="http://www.w3.org/2000/svg">
<g clip-path="url(#clip0_46_286)">
<path d="M12 3.0645C15.2063 3.0645 15.5859 3.07856 16.8469 3.13481C18.0188 3.18638 18.6516 3.38325 19.0734 3.54731C19.6313 3.76294 20.0344 4.02544 20.4516 4.44263C20.8734 4.8645 21.1313 5.26294 21.3469 5.82075C21.5109 6.24263 21.7078 6.88013 21.7594 8.04731C21.8156 9.31294 21.8297 9.69263 21.8297 12.8942C21.8297 16.1004 21.8156 16.4801 21.7594 17.7411C21.7078 18.9129 21.5109 19.5458 21.3469 19.9676C21.1313 20.5254 20.8687 20.9286 20.4516 21.3458C20.0297 21.7676 19.6313 22.0254 19.0734 22.2411C18.6516 22.4051 18.0141 22.602 16.8469 22.6536C15.5813 22.7098 15.2016 22.7239 12 22.7239C8.79375 22.7239 8.41406 22.7098 7.15313 22.6536C5.98125 22.602 5.34844 22.4051 4.92656 22.2411C4.36875 22.0254 3.96563 21.7629 3.54844 21.3458C3.12656 20.9239 2.86875 20.5254 2.65313 19.9676C2.48906 19.5458 2.29219 18.9083 2.24063 17.7411C2.18438 16.4754 2.17031 16.0958 2.17031 12.8942C2.17031 9.68794 2.18438 9.30825 2.24063 8.04731C2.29219 6.87544 2.48906 6.24263 2.65313 5.82075C2.86875 5.26294 3.13125 4.85981 3.54844 4.44263C3.97031 4.02075 4.36875 3.76294 4.92656 3.54731C5.34844 3.38325 5.98594 3.18638 7.15313 3.13481C8.41406 3.07856 8.79375 3.0645 12 3.0645ZM12 0.903564C8.74219 0.903564 8.33438 0.917627 7.05469 0.973877C5.77969 1.03013 4.90313 1.23638 4.14375 1.53169C3.35156 1.84106 2.68125 2.24888 2.01563 2.91919C1.34531 3.58481 0.9375 4.25513 0.628125 5.04263C0.332812 5.80669 0.126563 6.67856 0.0703125 7.95356C0.0140625 9.23794 0 9.64575 0 12.9036C0 16.1614 0.0140625 16.5692 0.0703125 17.8489C0.126563 19.1239 0.332812 20.0004 0.628125 20.7598C0.9375 21.552 1.34531 22.2223 2.01563 22.8879C2.68125 23.5536 3.35156 23.9661 4.13906 24.2708C4.90313 24.5661 5.775 24.7723 7.05 24.8286C8.32969 24.8848 8.7375 24.8989 11.9953 24.8989C15.2531 24.8989 15.6609 24.8848 16.9406 24.8286C18.2156 24.7723 19.0922 24.5661 19.8516 24.2708C20.6391 23.9661 21.3094 23.5536 21.975 22.8879C22.6406 22.2223 23.0531 21.552 23.3578 20.7645C23.6531 20.0004 23.8594 19.1286 23.9156 17.8536C23.9719 16.5739 23.9859 16.1661 23.9859 12.9083C23.9859 9.65044 23.9719 9.24263 23.9156 7.96294C23.8594 6.68794 23.6531 5.81138 23.3578 5.052C23.0625 4.25513 22.6547 3.58481 21.9844 2.91919C21.3188 2.25356 20.6484 1.84106 19.8609 1.53638C19.0969 1.24106 18.225 1.03481 16.95 0.978564C15.6656 0.917627 15.2578 0.903564 12 0.903564Z" fill="#9CA3AF"/>
<path d="M12 6.7395C8.59688 6.7395 5.83594 9.50044 5.83594 12.9036C5.83594 16.3067 8.59688 19.0676 12 19.0676C15.4031 19.0676 18.1641 16.3067 18.1641 12.9036C18.1641 9.50044 15.4031 6.7395 12 6.7395ZM12 16.902C9.79219 16.902 8.00156 15.1114 8.00156 12.9036C8.00156 10.6958 9.79219 8.90513 12 8.90513C14.2078 8.90513 15.9984 10.6958 15.9984 12.9036C15.9984 15.1114 14.2078 16.902 12 16.902Z" fill="#9CA3AF"/>
<path d="M19.8469 6.49571C19.8469 7.29258 19.2 7.93477 18.4078 7.93477C17.6109 7.93477 16.9688 7.28789 16.9688 6.49571C16.9688 5.69883 17.6156 5.05664 18.4078 5.05664C19.2 5.05664 19.8469 5.70352 19.8469 6.49571Z" fill="#9CA3AF"/>
</g>
<defs>
<clipPath id="clip0_46_286">
<rect width="24" height="24" fill="white" transform="translate(0 0.903564)"/>
</clipPath>
</defs>
</svg>
