<svg width="24" height="25" viewBox="0 0 24 25" fill="none" xmlns="http://www.w3.org/2000/svg">
<g clip-path="url(#clip0_46_287)">
<path d="M22.2234 0.903564H1.77187C0.792187 0.903564 0 1.677 0 2.63325V23.1692C0 24.1254 0.792187 24.9036 1.77187 24.9036H22.2234C23.2031 24.9036 24 24.1254 24 23.1739V2.63325C24 1.677 23.2031 0.903564 22.2234 0.903564ZM7.12031 21.3551H3.55781V9.89888H7.12031V21.3551ZM5.33906 8.33794C4.19531 8.33794 3.27188 7.4145 3.27188 6.27544C3.27188 5.13638 4.19531 4.21294 5.33906 4.21294C6.47813 4.21294 7.40156 5.13638 7.40156 6.27544C7.40156 7.40981 6.47813 8.33794 5.33906 8.33794ZM20.4516 21.3551H16.8937V15.7864C16.8937 14.4598 16.8703 12.7489 15.0422 12.7489C13.1906 12.7489 12.9094 14.1973 12.9094 15.6926V21.3551H9.35625V9.89888H12.7687V11.4645H12.8156C13.2891 10.5645 14.4516 9.61294 16.1813 9.61294C19.7859 9.61294 20.4516 11.9848 20.4516 15.0692V21.3551Z" fill="#9CA3AF"/>
</g>
<defs>
<clipPath id="clip0_46_287">
<rect width="24" height="24" fill="white" transform="translate(0 0.903564)"/>
</clipPath>
</defs>
</svg>
