<svg width="21" height="20" viewBox="0 0 21 20" fill="none" xmlns="http://www.w3.org/2000/svg">
<mask id="mask0_46_240" style="mask-type:luminance" maskUnits="userSpaceOnUse" x="3" y="1" width="15" height="18">
<path fill-rule="evenodd" clip-rule="evenodd" d="M3.00049 1.67642H17.2111V18.221H3.00049V1.67642Z" fill="white"/>
</mask>
<g mask="url(#mask0_46_240)">
<path fill-rule="evenodd" clip-rule="evenodd" d="M6.81141 2.92642C5.43057 2.92642 4.28391 4.04476 4.25141 5.42392V14.3364C4.22057 15.7639 5.34557 16.9398 6.75891 16.9714H13.4789C14.8697 16.9139 15.9714 15.7581 15.9614 14.3414V6.94976L12.0989 2.92642H6.82141H6.81141ZM6.82141 18.2214H6.73057C4.62891 18.1739 2.95557 16.4256 3.00141 14.3231V5.40892C3.04974 3.34142 4.75724 1.67642 6.80974 1.67642H6.82391H12.3656C12.5356 1.67642 12.6981 1.74559 12.8164 1.86809L17.0372 6.26559C17.1489 6.38142 17.2114 6.53726 17.2114 6.69809V14.3364C17.2264 16.4273 15.5981 18.1356 13.5039 18.2206L6.82141 18.2214Z" fill="black"/>
</g>
<path fill-rule="evenodd" clip-rule="evenodd" d="M16.5823 7.48693H14.2865C12.7615 7.48276 11.5215 6.23943 11.5215 4.7161V2.29193C11.5215 1.94693 11.8015 1.66693 12.1465 1.66693C12.4915 1.66693 12.7715 1.94693 12.7715 2.29193V4.7161C12.7715 5.55276 13.4523 6.23443 14.2882 6.23693H16.5823C16.9273 6.23693 17.2073 6.51693 17.2073 6.86193C17.2073 7.20693 16.9273 7.48693 16.5823 7.48693Z" fill="black"/>
<path fill-rule="evenodd" clip-rule="evenodd" d="M11.9907 13.4237H7.49072C7.14572 13.4237 6.86572 13.1437 6.86572 12.7987C6.86572 12.4537 7.14572 12.1737 7.49072 12.1737H11.9907C12.3357 12.1737 12.6157 12.4537 12.6157 12.7987C12.6157 13.1437 12.3357 13.4237 11.9907 13.4237Z" fill="black"/>
<path fill-rule="evenodd" clip-rule="evenodd" d="M10.2869 10.297H7.49023C7.14523 10.297 6.86523 10.017 6.86523 9.67203C6.86523 9.32703 7.14523 9.04703 7.49023 9.04703H10.2869C10.6319 9.04703 10.9119 9.32703 10.9119 9.67203C10.9119 10.017 10.6319 10.297 10.2869 10.297Z" fill="black"/>
</svg>
