<svg width="24" height="25" viewBox="0 0 24 25" fill="none" xmlns="http://www.w3.org/2000/svg">
<path d="M7.55016 22.6535C16.6045 22.6535 21.5583 15.1503 21.5583 8.64543C21.5583 8.43449 21.5536 8.21886 21.5442 8.00793C22.5079 7.31103 23.3395 6.44782 24 5.45886C23.1025 5.85816 22.1496 6.11895 21.1739 6.2323C22.2013 5.61647 22.9705 4.64904 23.3391 3.50933C22.3726 4.08212 21.3156 4.48618 20.2134 4.70417C19.4708 3.91513 18.489 3.39268 17.4197 3.21762C16.3504 3.04255 15.2532 3.22461 14.2977 3.73566C13.3423 4.24671 12.5818 5.05827 12.1338 6.04488C11.6859 7.03148 11.5754 8.13818 11.8195 9.19386C9.86249 9.09565 7.94794 8.58727 6.19998 7.70166C4.45203 6.81606 2.90969 5.573 1.67297 4.05308C1.0444 5.13681 0.852057 6.41921 1.13503 7.63966C1.418 8.8601 2.15506 9.92701 3.19641 10.6236C2.41463 10.5987 1.64998 10.3882 0.965625 10.0095V10.0704C0.964925 11.2077 1.3581 12.3102 2.07831 13.1903C2.79852 14.0705 3.80132 14.6741 4.91625 14.8986C4.19206 15.0967 3.43198 15.1256 2.69484 14.9829C3.00945 15.961 3.62157 16.8165 4.44577 17.4299C5.26997 18.0433 6.26512 18.3842 7.29234 18.4048C5.54842 19.7747 3.39417 20.5177 1.17656 20.5142C0.783287 20.5136 0.390399 20.4895 0 20.442C2.25286 21.8873 4.87353 22.6549 7.55016 22.6535Z" fill="#9CA3AF"/>
</svg>
